<?xml version="1.0"?>
<svg width="512" height="512" xmlns="http://www.w3.org/2000/svg" xmlns:svg="http://www.w3.org/2000/svg">

 <g>
  <title>Layer 1</title>
  <path opacity="0.7" fill="black" id="svg_1" d="m492,109.5c-17.399994,7.699997 -36,12.900002 -55.600006,15.300003c20,-12 35.399994,-31 42.600006,-53.600006c-18.700012,11.100006 -39.399994,19.200005 -61.5,23.5c-17.700012,-18.899994 -43,-30.699997 -70.700012,-30.699997c-53.5,0 -96.800003,43.400002 -96.800003,96.899994c0,7.600006 0.799988,15 2.5,22.100006c-80.499985,-4 -151.999985,-42.600006 -199.699986,-101.300003c-8.299999,14.300003 -13.099998,31 -13.099998,48.699997c0,33.600006 17.099998,63.300003 43.100002,80.699997c-15.800003,-0.399994 -30.800003,-4.799988 -43.800003,-12.099991c0,0.399994 0,0.800003 0,1.199997c0,47 33.400002,86.099991 77.699997,95.000015c-8.099998,2.199982 -16.699997,3.399994 -25.5,3.399994c-6.199997,0 -12.299995,-0.600006 -18.199997,-1.800018c12.300003,38.5 48.099991,66.5 90.5,67.300018c-33.100006,26 -74.900009,41.5 -120.300011,41.5c-7.799999,0 -15.5,-0.5 -23.099998,-1.399994c42.700008,27.799988 93.600006,43.799988 148.200012,43.799988c178.199997,0 275.699997,-147.700012 275.699997,-275.800003c0,-4.199997 -0.100006,-8.399994 -0.299988,-12.5c18.799988,-13.699997 35.299988,-30.699997 48.299988,-50.199997zm-57.799988,37.199997l-7,5.100006l0.399994,8.599991c0.200012,3.800003 0.300018,7.800003 0.300018,11.800003c0,30.199997 -5.900024,61.800003 -17,91.500015c-11.700012,31.199982 -28.5,59.399994 -50,83.799988c-23,26.100006 -50.200012,46.5 -81.100006,60.799988c-33.800003,15.700012 -71.300003,23.600006 -111.500015,23.600006c-28.899994,0 -57.399994,-4.799988 -84.499992,-14.199982c9.900002,-1.900024 19.599998,-4.600006 29.099998,-7.900024c21.699997,-7.599976 41.900009,-18.699982 60.100006,-33l35.299988,-27.699982l-44.899994,-0.800018c-26.100006,-0.5 -49.699997,-13.399994 -64.299995,-33.899994c7.299995,-0.5 14.5,-1.799988 21.5,-3.699982l60.699989,-20.200012l-61.699989,-10.899994c-29.600006,-5.899994 -52.800003,-27.900009 -61.300003,-55.800003c7.800003,2 15.400002,2.800003 23.900002,3.300003c0,0 31.799995,1.399994 55.800003,-0.100006c-13.000008,-6.199997 -46.400002,-29.199997 -46.400002,-29.199997c-22.5,-15.100006 -36.000004,-40.199997 -36.000004,-67.400009c0,-6.399994 0.799999,-12.799995 2.200001,-18.999992c21.900002,22.400002 47,41.099983 75.099983,55.499992c37,19.100006 76.900009,29.800003 118.600006,31.900009l21.200012,1.099991l-4.800018,-20.699997c-1.399994,-5.900009 -2.100006,-12.100006 -2.100006,-18.5c0,-44.400009 36.300018,-80.699997 80.900024,-80.699997c22.299988,0 43.799988,9.300003 59,25.599998l6.099976,6.5l8.700012,-1.699997c4.5,-0.900002 8.899994,-1.900002 13.299988,-3.099998c-1,1.399994 -5.699982,6.099998 -11,10.799995c-4.5,4 -17.799988,16.500008 -17.799988,16.500008s13,4.099991 21.100006,5c8.100006,0.899994 17.399994,-0.600006 18.899994,-0.800003c-2.799988,2.300003 -7.799988,5.800003 -10.799988,7.899994z"/>
 </g>
</svg>