<?xml version="1.0"?>
<svg width="512" height="512" xmlns="http://www.w3.org/2000/svg" xmlns:svg="http://www.w3.org/2000/svg">

 <g>
  <title>Layer 1</title>
  <g id="svg_1">
   <path opacity="0.7" fill="black" id="svg_2" d="m256.283325,47.553001c70.692993,0 128,54.681999 118,128.930992c-2.071991,15.388 -3.421997,31.483002 -4.26001,44.759003c0,0 2.402008,4.253006 12.664001,4.253006c6.071014,0 14.89502,-1.542999 27.596008,-6.354004c2.235992,-0.847 4.377014,-1.240997 6.377014,-1.240997c7.917999,0 13.61499,5.931 14.122986,12.270996c0.425995,5.309998 -4.563995,11.199005 -8.371002,13.009003c-13.765991,6.542007 -46.990997,10.063004 -46.990997,32.638c0,22.575989 22.362,46.656006 40.862,63.713013s63.71701,21.069977 63.71701,21.069977s0.28299,21.570007 -31.71701,29.097015c-32,7.523987 -32.099976,5.711975 -33.25,13.79599c-2.132996,14.979004 -1.535004,21.377991 -11.247986,21.377991c-1.671997,0 -3.651001,-0.190002 -6.002014,-0.557983c-8.22998,-1.291016 -19.238983,-3.644012 -31.121002,-3.644012c-11.215973,0 -23.209991,2.096985 -34.378998,9.161011c-23,14.548981 -41.28299,34.113983 -76.28299,34.113983s-53.000015,-19.565002 -76.000015,-34.113983c-11.169998,-7.065002 -23.162003,-9.161011 -34.378998,-9.161011c-11.880005,0 -22.891998,2.352997 -31.120995,3.644012c-2.351997,0.366974 -4.330002,0.557983 -6.001999,0.557983c-9.709999,0 -9.114998,-6.398987 -11.248001,-21.377991c-1.151001,-8.084015 -1.25,-6.27002 -33.25,-13.795013s-32,-29.096985 -32,-29.096985s45.5,-4.011993 64,-21.067993c18.5,-17.058014 40.861992,-41.134003 40.861992,-63.710022c0,-22.574997 -33.22599,-26.089996 -46.99099,-32.631989c-3.806999,-1.809998 -8.796005,-7.686996 -8.371002,-12.997009c0.507004,-6.335999 6.195999,-12.250992 14.107002,-12.25c2.003998,0 4.152,0.380005 6.392998,1.229004c12.749001,4.828995 21.587997,6.341995 27.661995,6.341995c10.203995,0 12.597992,-4.272995 12.597992,-4.272995c-0.83699,-13.274994 -2.186996,-29.371002 -4.258987,-44.759003c-10,-74.248993 47.306992,-128.930996 118.000015,-128.930996l0,0m0.281982,-15.553989l-0.28299,0c-41.093018,0 -79.215012,16.208 -104.591019,45.341003c-23.981987,27.533997 -34.374992,63.345001 -29.264992,101.291992c1.416,10.51001 2.459999,21.231003 3.209999,30.618011c-3.969994,-0.559006 -9.685997,-1.998001 -17.702995,-5.034012c-3.965004,-1.501999 -8.016998,-2.294998 -12.042999,-2.294998c-15.640999,-0.000992 -28.844002,11.852005 -30.056999,27.003006c-1.027,12.817993 8.235001,24.39299 17.470001,28.783005c4.250999,2.019989 9.181,3.578003 14.399994,5.231995c6.707001,2.125 14.309006,4.531982 19.292999,7.703003c4.147003,2.639008 4.147003,4.167999 4.147003,5.182007c0,8.659973 -6.191002,24.690979 -35.688004,51.888c-10.498993,9.681 -39.054996,15.500977 -54.587999,16.896973l-14.571999,1.311005l-0.013,14.682007c0,1.679016 0.312,10.54599 6.485001,20.319c5.246,8.306 16.073,19.28299 37.863001,24.407013c6.179001,1.453003 11.185997,2.562988 15.208,3.453979c2.306,0.512024 4.555,1.01001 6.454002,1.453003c0.027,0.209015 0.054001,0.417023 0.081001,0.623016c0.899994,7.003998 1.611,12.535004 4.391998,17.75c2.452995,4.600006 8.573997,12.315979 22.014999,12.315979c2.477997,0 5.249001,-0.246002 8.472,-0.750977c1.671997,-0.263 3.386002,-0.554016 5.199997,-0.863007c7.11599,-1.212006 15.181999,-2.587006 23.450996,-2.587006c10.276993,0 18.731995,2.187988 25.845993,6.687988c4.531006,2.867004 8.891998,5.972015 13.509003,9.26001c17.990997,12.80899 38.382004,27.328003 71.024017,27.328003c32.726013,0 53.292999,-14.582001 71.438995,-27.446014c4.576019,-3.243988 8.89801,-6.30899 13.377014,-9.141998c7.112976,-4.5 15.567993,-6.687988 25.845978,-6.687988c8.27002,0 16.334015,1.375 23.449005,2.585999c1.813995,0.311005 3.529022,0.60199 5.201996,0.864014c3.223022,0.504974 5.993011,0.750977 8.472015,0.750977c13.440002,0 19.561981,-7.714996 22.014984,-12.312988c2.781006,-5.213989 3.492004,-10.746002 4.391998,-17.748993c0.027008,-0.208008 0.055023,-0.417999 0.082001,-0.628998c1.89801,-0.44101 4.14801,-0.94101 6.455017,-1.451996c4.02301,-0.891998 9.028992,-2.001007 15.205994,-3.45401c21.851013,-5.139008 32.610992,-16.170013 37.790009,-24.518005c6.097992,-9.828003 6.29599,-18.735992 6.27298,-20.421997l-0.188995,-14.501007l-14.39798,-1.277985c-15.413025,-1.395996 -43.800018,-7.218994 -54.300995,-16.899994c-16.281006,-15.011017 -35.688019,-36.199005 -35.688019,-51.893005c0,-1.014008 0,-2.546021 4.150024,-5.186005c4.984985,-3.174011 12.588989,-5.584015 19.296997,-7.709991c5.21698,-1.654022 10.143982,-3.21701 14.393982,-5.236023c9.236023,-4.389984 18.498016,-15.977997 17.471008,-28.806992c-1.214996,-15.166 -14.424011,-27.046005 -30.071991,-27.046005c-4.020996,0 -8.067993,0.76001 -12.027008,2.259003c-8.027008,3.041 -13.743011,4.410004 -17.704987,4.962006c0.746979,-9.319 1.790985,-20.119995 3.210999,-30.669998c5.110992,-37.947998 -5.281006,-73.509003 -29.264008,-101.042007c-25.379028,-29.131996 -63.501007,-45.339996 -104.594025,-45.339996l0,0z"/>
  </g>
 </g>
</svg>